<?xml version="1.0" encoding="utf-8"?>
<!-- Generator: Adobe Illustrator 16.0.3, SVG Export Plug-In . SVG Version: 6.00 Build 0)  -->
<!DOCTYPE svg PUBLIC "-//W3C//DTD SVG 1.1//EN" "http://www.w3.org/Graphics/SVG/1.1/DTD/svg11.dtd">
<svg version="1.1" id="Layer_1" xmlns="http://www.w3.org/2000/svg" xmlns:xlink="http://www.w3.org/1999/xlink" x="0px" y="0px"
	 width="64px" height="64px" viewBox="0 0 64 64" enable-background="new 0 0 64 64" xml:space="preserve">
<g>
	<path fill-rule="evenodd" clip-rule="evenodd" d="M10.023,35.728c0.985-0.001,1.97,0.018,2.956-0.005
		c2.045-0.045,4.073,0.109,6.101,0.381c1.167,0.156,2.353,0.214,3.534,0.24c2.447,0.058,4.895,0.038,7.343,0.098
		c3.89,0.094,7.759-0.245,11.632-0.529c2.16-0.157,4.328-0.311,6.49-0.288c3.311,0.034,6.573-0.244,9.814-0.9
		c0.88-0.178,1.784-0.236,2.678-0.338c0.208-0.024,0.423-0.023,0.632,0.001c0.404,0.047,0.75,0.371,0.793,0.711
		c0.043,0.348-0.286,0.938-0.621,1.019c-0.187,0.044-0.484,0.042-0.588-0.071c-0.283-0.31-0.601-0.26-0.93-0.208
		c-1.39,0.219-2.783,0.417-4.164,0.68c-2.128,0.403-4.278,0.409-6.431,0.483c-3.4,0.115-6.804,0.262-10.197,0.515
		c-3.978,0.296-7.952,0.389-11.936,0.242c-0.885-0.033-1.773-0.025-2.66-0.009c-2.539,0.048-5.06-0.133-7.572-0.5
		c-0.693-0.101-1.402-0.134-2.104-0.137c-3.292-0.014-6.585-0.011-9.878,0.004c-0.562,0.002-1.128-0.045-1.66,0.31
		c-0.432,0.287-1.001-0.169-0.942-0.692c0.051-0.448,0.385-0.828,0.836-0.875c0.643-0.064,1.29-0.117,1.935-0.125
		C6.73,35.716,8.377,35.728,10.023,35.728z"/>
	<path fill-rule="evenodd" clip-rule="evenodd" d="M15.554,20.312c0.028,2.271-0.259,4.233-1.486,5.927
		c-0.346,0.478-0.827,0.865-1.286,1.247c-0.506,0.421-1.05,0.795-1.589,1.174c-0.308,0.216-0.622,0.439-0.963,0.589
		c-0.643,0.282-1.293,0.568-1.966,0.754c-0.699,0.192-1.428,0.307-2.151,0.368c-0.258,0.022-0.606-0.152-0.792-0.35
		c-0.23-0.243-0.127-0.572,0.088-0.847c0.068-0.088,0.089-0.235,0.085-0.353c-0.119-3.838-0.203-7.677-0.381-11.513
		c-0.095-2.078-0.343-4.15-0.54-6.222C4.444,9.747,4.483,9.609,5.811,9.533c3.428-0.192,6.456,1.162,8.191,4.471
		C15.072,16.044,15.569,18.241,15.554,20.312z M6.947,28.906c0.165-0.017,0.238-0.011,0.3-0.034
		c1.268-0.471,2.632-0.734,3.628-1.772c0.219-0.229,0.508-0.407,0.795-0.549c1.167-0.579,1.759-1.607,2.084-2.783
		c0.816-2.964,0.487-5.862-0.75-8.646c-1.246-2.804-3.507-4.132-6.528-4.246c-0.503-0.02-0.527,0.032-0.481,0.522
		c0.354,3.92,0.733,7.837,0.772,11.78C6.788,25.071,6.885,26.963,6.947,28.906z"/>
	<path fill-rule="evenodd" clip-rule="evenodd" d="M17.074,29.381c0.195-1.15,0.406-2.298,0.584-3.451
		c0.394-2.543,0.776-5.09,1.153-7.636c0.21-1.431,0.346-2.876,0.614-4.296c0.208-1.103,0.572-2.174,0.86-3.262
		c0.104-0.391,0.359-0.593,0.75-0.627c0.387-0.033,0.698,0.097,0.858,0.472c0.631,1.473,1.315,2.927,1.869,4.43
		c0.645,1.751,1.168,3.548,1.762,5.319c0.065,0.194,0.215,0.384,0.375,0.518c0.545,0.461,0.586,0.724,0.185,1.313
		c-0.061,0.088-0.081,0.24-0.054,0.346c0.504,1.989,1.016,3.976,1.538,5.961c0.071,0.269,0.226,0.516,0.316,0.781
		c0.137,0.403-0.016,0.769-0.363,0.922c-0.366,0.16-0.764,0.018-0.948-0.38c-0.151-0.331-0.281-0.677-0.371-1.029
		c-0.559-2.165-1.112-4.329-1.646-6.5c-0.092-0.373-0.237-0.54-0.625-0.456c-0.632,0.138-1.261,0.285-1.897,0.397
		c-0.703,0.124-1.411,0.237-2.121,0.302c-0.29,0.026-0.378,0.123-0.418,0.385c-0.303,1.959-0.622,3.917-0.922,5.876
		c-0.051,0.332-0.035,0.674-0.051,1.011c-0.022,0.495-0.285,0.807-0.678,0.809c-0.425,0.002-0.703-0.313-0.715-0.815
		c-0.003-0.127-0.001-0.254-0.001-0.38C17.111,29.387,17.093,29.383,17.074,29.381z M21.353,12.667
		c-0.058-0.002-0.115-0.005-0.172-0.007c-0.229,0.95-0.519,1.889-0.67,2.849c-0.258,1.636-0.43,3.284-0.634,4.928
		c-0.05,0.406,0.275,0.743,0.686,0.66c1.164-0.238,2.321-0.51,3.518-0.776C23.467,17.672,22.328,15.2,21.353,12.667z"/>
	<path fill-rule="evenodd" clip-rule="evenodd" d="M34.409,26.645c0.109-0.399,0.189-0.707,0.276-1.012
		c1.072-3.76,2.15-7.516,3.215-11.278c0.176-0.621,0.258-1.269,0.442-1.886c0.225-0.75,0.485-1.493,0.783-2.216
		c0.158-0.384,0.594-0.499,0.926-0.336c0.36,0.176,0.502,0.573,0.289,0.971c-0.402,0.758-0.559,1.575-0.743,2.403
		c-0.311,1.383-0.744,2.74-1.129,4.107c-0.869,3.085-1.739,6.171-2.612,9.255c-0.177,0.622-0.368,1.241-0.549,1.862
		c-0.127,0.436-0.428,0.637-0.869,0.665c-0.438,0.027-0.695-0.22-0.825-0.59c-0.351-0.994-0.71-1.986-1.007-2.997
		c-1.437-4.883-2.856-9.772-4.268-14.663c-0.103-0.356-0.147-0.747-0.119-1.115c0.027-0.363,0.321-0.561,0.687-0.553
		c0.347,0.009,0.564,0.213,0.646,0.559c0.124,0.517,0.24,1.037,0.384,1.549c0.93,3.303,1.859,6.605,2.807,9.904
		c0.474,1.647,0.986,3.285,1.485,4.927C34.265,26.319,34.322,26.431,34.409,26.645z"/>
	<path fill-rule="evenodd" clip-rule="evenodd" d="M44.773,11.646c0.165,1.321,0.342,2.63,0.485,3.943
		c0.098,0.893,0.152,1.793,0.219,2.69c0.041,0.576,0.035,0.552,0.595,0.585c1.248,0.073,2.495,0.163,3.739,0.267
		c0.55,0.046,0.823,0.364,0.764,0.807c-0.058,0.43-0.413,0.616-0.961,0.568c-1.161-0.103-2.323-0.18-3.485-0.262
		c-0.137-0.01-0.276,0.01-0.444,0.019c0.065,2.501,0.13,4.975,0.196,7.533c0.48-0.151,0.843-0.305,1.222-0.376
		c0.911-0.172,1.829-0.306,2.743-0.456c0.567-0.093,1.137-0.174,1.7-0.288c0.447-0.09,0.809,0.059,0.929,0.431
		c0.127,0.394-0.069,0.769-0.539,0.891c-0.541,0.14-1.097,0.268-1.651,0.312c-1.254,0.1-2.484,0.286-3.675,0.708
		c-0.328,0.118-0.68,0.192-1.027,0.224c-0.589,0.055-1.01-0.325-1.031-0.913c-0.054-1.419-0.08-2.838-0.141-4.256
		c-0.184-4.257-0.323-8.519-1.182-12.714c-0.039-0.192-0.072-0.393-0.064-0.585c0.019-0.394,0.335-0.67,0.738-0.655
		c1.25,0.043,2.5,0.068,3.748,0.146c0.883,0.055,1.763,0.179,2.642,0.286c0.453,0.056,0.71,0.366,0.672,0.763
		c-0.038,0.395-0.345,0.649-0.813,0.607c-0.84-0.073-1.676-0.222-2.518-0.264C46.683,11.61,45.728,11.646,44.773,11.646z"/>
	<path fill-rule="evenodd" clip-rule="evenodd" d="M17.522,49.615c0,0.146,0,0.291,0,0.437c-0.001,1.098,0.002,2.195-0.003,3.292
		c-0.002,0.503-0.233,0.796-0.615,0.801c-0.384,0.005-0.623-0.288-0.625-0.789c-0.007-1.589-0.015-3.179-0.01-4.768
		c0.001-0.352,0.044-0.702,0.083-1.052c0.06-0.534,0.515-0.779,0.98-0.508c0.186,0.108,0.339,0.291,0.474,0.466
		c0.761,0.994,1.229,2.141,1.689,3.291c0.061,0.153,0.141,0.299,0.25,0.525c0.308-0.416,0.598-0.755,0.83-1.129
		c0.497-0.8,0.969-1.616,1.441-2.43c0.17-0.294,0.381-0.497,0.743-0.428c0.352,0.066,0.537,0.321,0.573,0.649
		c0.166,1.466,0.318,2.933,0.468,4.4c0.028,0.279,0.034,0.562,0.039,0.843c0.008,0.458-0.232,0.755-0.604,0.765
		c-0.358,0.009-0.603-0.252-0.637-0.695c-0.081-1.078-0.155-2.157-0.235-3.236c-0.005-0.067-0.025-0.135-0.057-0.29
		c-0.105,0.154-0.17,0.249-0.235,0.344c-0.478,0.694-0.928,1.409-1.44,2.076c-0.637,0.831-1.405,0.771-1.898-0.152
		c-0.336-0.631-0.588-1.307-0.88-1.961c-0.071-0.16-0.151-0.315-0.227-0.473C17.592,49.601,17.557,49.608,17.522,49.615z"/>
	<path fill-rule="evenodd" clip-rule="evenodd" d="M30.475,49.853c-0.238,0.424-0.474,0.85-0.715,1.272
		c-0.223,0.389-0.413,0.803-0.685,1.155c-0.373,0.486-0.833,0.502-1.254,0.054c-0.285-0.306-0.512-0.669-0.746-1.019
		c-0.272-0.409-0.523-0.833-0.786-1.25c-0.013-0.023-0.04-0.037-0.119-0.105c-0.016,0.151-0.037,0.262-0.037,0.372
		c-0.002,0.914-0.001,1.828-0.001,2.742c0,0.128,0.006,0.256-0.012,0.379c-0.054,0.352-0.257,0.575-0.619,0.571
		c-0.363-0.004-0.577-0.232-0.6-0.586c-0.027-0.405-0.012-0.814-0.012-1.223c-0.001-1.379-0.001-2.758-0.001-4.137
		c0-0.112-0.005-0.225,0.002-0.337c0.024-0.377,0.194-0.657,0.576-0.736c0.358-0.074,0.568,0.141,0.741,0.432
		c0.634,1.079,1.281,2.151,1.924,3.225c0.071,0.118,0.153,0.23,0.266,0.4c0.105-0.209,0.174-0.374,0.267-0.522
		c0.34-0.549,0.686-1.095,1.032-1.639c0.242-0.379,0.491-0.751,0.731-1.13c0.177-0.281,0.425-0.412,0.75-0.345
		c0.311,0.064,0.495,0.276,0.518,0.589c0.119,1.568,0.24,3.138,0.33,4.708c0.039,0.65-0.193,0.965-0.611,0.974
		c-0.42,0.007-0.617-0.309-0.633-0.958c-0.021-0.814-0.059-1.629-0.098-2.443c-0.006-0.135-0.051-0.269-0.078-0.403
		C30.562,49.88,30.519,49.866,30.475,49.853z"/>
	<path fill-rule="evenodd" clip-rule="evenodd" d="M11.498,46.589c0.695,0.073,1.224,0.106,1.742,0.197
		c0.172,0.029,0.363,0.175,0.473,0.321c1.083,1.454,1.652,3.076,1.391,4.898c-0.25,1.736-1.306,2.466-3.045,2.204
		c-1.729-0.26-2.9-1.618-2.904-3.377c-0.001-0.605,0.005-1.211,0.038-1.813c0.049-0.9,0.457-1.646,1.187-2.139
		C10.72,46.651,11.219,46.656,11.498,46.589z M10.388,50.121c0.004,0,0.007,0,0.012,0c0,0.197,0,0.395,0,0.591
		c0.002,1.442,0.819,2.27,2.26,2.286c0.705,0.008,1.028-0.236,1.172-0.937c0.262-1.275-0.069-2.442-0.667-3.562
		c-0.223-0.416-0.433-0.795-1.015-0.619c-0.142,0.042-0.307,0.007-0.461,0.007c-0.758-0.002-1.177,0.375-1.249,1.142
		C10.406,49.392,10.404,49.758,10.388,50.121z"/>
	<path fill-rule="evenodd" clip-rule="evenodd" d="M41.335,49.447c0,1.222,0.001,2.445,0,3.668c0,0.168,0.012,0.341-0.014,0.506
		c-0.057,0.351-0.266,0.562-0.632,0.551c-0.346-0.011-0.545-0.225-0.582-0.557c-0.029-0.279-0.014-0.562-0.015-0.844
		c-0.001-0.816,0.034-1.634-0.01-2.447c-0.046-0.862,0.156-1.676,0.368-2.492c0.135-0.518,0.713-0.699,1.142-0.37
		c0.088,0.068,0.159,0.16,0.229,0.247c0.864,1.07,1.726,2.143,2.589,3.213c0.033,0.041,0.082,0.068,0.179,0.148
		c0.036-0.28,0.07-0.511,0.095-0.741c0.103-0.95,0.207-1.899,0.3-2.851c0.043-0.436,0.273-0.702,0.637-0.692
		c0.359,0.009,0.607,0.279,0.602,0.723c-0.009,0.519-0.037,1.04-0.096,1.556c-0.118,1.049-0.26,2.094-0.399,3.139
		c-0.027,0.208-0.054,0.426-0.139,0.611c-0.188,0.415-0.625,0.554-0.975,0.267c-0.33-0.272-0.598-0.626-0.877-0.957
		c-0.766-0.907-1.523-1.821-2.284-2.733C41.413,49.409,41.374,49.429,41.335,49.447z"/>
	<path fill-rule="evenodd" clip-rule="evenodd" d="M33.534,49.372c0-0.646-0.006-1.294,0.003-1.94
		c0.006-0.506,0.239-0.791,0.623-0.791c0.385-0.001,0.614,0.281,0.618,0.792c0.006,1.195,0.005,2.391,0.003,3.586
		c-0.003,0.759,0.233,1.438,0.68,2.046c0.391,0.536,0.938,0.562,1.391,0.082c0.395-0.42,0.594-0.925,0.614-1.488
		c0.047-1.264,0.069-2.529,0.101-3.794c0.004-0.154-0.009-0.311,0.009-0.464c0.041-0.377,0.296-0.619,0.634-0.599
		c0.368,0.022,0.596,0.248,0.586,0.597c-0.047,1.67-0.084,3.342-0.204,5.008c-0.057,0.789-0.563,1.403-1.17,1.892
		c-0.861,0.697-2.122,0.549-2.827-0.32c-0.678-0.835-1.044-1.794-1.059-2.874C33.528,50.526,33.534,49.949,33.534,49.372z"/>
	<path fill-rule="evenodd" clip-rule="evenodd" d="M3.364,50.835c0-0.351-0.002-0.702,0-1.053c0.008-1.246,1.826-3.146,3.229-2.884
		c0.286,0.054,0.59-0.004,0.885,0.015c0.385,0.022,0.633,0.266,0.642,0.598c0.009,0.346-0.25,0.606-0.653,0.633
		c-0.251,0.017-0.506,0.005-0.759,0.005c-1.164,0-2.077,0.878-2.12,2.043c-0.008,0.21-0.007,0.422-0.005,0.633
		c0.007,0.583-0.069,1.161,0.459,1.633c0.653,0.582,1.378,0.848,2.237,0.79c0.028-0.003,0.055-0.008,0.083-0.01
		c0.556-0.064,0.854,0.099,0.903,0.494c0.049,0.398-0.263,0.722-0.778,0.76c-1.457,0.107-2.681-0.37-3.634-1.496
		C3.317,52.36,3.303,51.604,3.364,50.835z"/>
	<path fill-rule="evenodd" clip-rule="evenodd" d="M57.717,49.261c0.587-0.696,1.161-1.365,1.723-2.045
		c0.328-0.398,0.651-0.496,0.967-0.26c0.309,0.232,0.342,0.607,0.021,1.003c-0.68,0.843-1.395,1.655-2.076,2.495
		c-0.121,0.147-0.214,0.365-0.218,0.554c-0.017,0.772,0.008,1.546,0.014,2.318c0.005,0.471-0.219,0.756-0.596,0.764
		c-0.372,0.008-0.629-0.253-0.646-0.73c-0.026-0.842,0.002-1.687-0.042-2.529c-0.018-0.316-0.131-0.646-0.271-0.935
		c-0.345-0.706-0.739-1.389-1.094-2.09c-0.086-0.169-0.119-0.376-0.131-0.568c-0.024-0.389,0.186-0.665,0.518-0.698
		c0.363-0.037,0.549,0.162,0.691,0.486c0.297,0.68,0.63,1.344,0.954,2.011C57.566,49.105,57.634,49.161,57.717,49.261z"/>
	<path fill-rule="evenodd" clip-rule="evenodd" d="M52.687,47.891c0,0.16,0,0.325,0,0.489c0,1.49,0,2.979-0.003,4.469
		c0,0.167,0.003,0.341-0.035,0.502c-0.068,0.292-0.271,0.461-0.573,0.465c-0.301,0.005-0.514-0.151-0.589-0.445
		c-0.042-0.16-0.046-0.333-0.046-0.5c-0.004-1.546-0.012-3.091,0.005-4.637c0.004-0.353-0.104-0.475-0.453-0.447
		c-0.321,0.025-0.646,0.017-0.97-0.004c-0.411-0.025-0.66-0.276-0.657-0.623c0.002-0.348,0.259-0.612,0.671-0.606
		c1.347,0.021,2.695,0.062,4.042,0.111c0.354,0.013,0.571,0.229,0.597,0.59c0.024,0.333-0.229,0.611-0.601,0.632
		C53.642,47.909,53.208,47.891,52.687,47.891z"/>
	<path fill-rule="evenodd" clip-rule="evenodd" d="M47.215,50.106c0-0.828-0.012-1.657,0.004-2.485
		c0.011-0.532,0.389-0.838,0.812-0.688c0.329,0.116,0.427,0.383,0.427,0.701c0,1.533-0.005,3.064,0,4.597
		c0.002,0.264,0.034,0.529,0.061,0.793c0.041,0.438-0.146,0.74-0.503,0.796c-0.355,0.055-0.68-0.168-0.72-0.601
		c-0.064-0.696-0.062-1.399-0.082-2.1c-0.009-0.338-0.001-0.675-0.001-1.013C47.213,50.106,47.214,50.106,47.215,50.106z"/>
</g>
</svg>
